<svg width="52" height="52" viewBox="0 0 52 52" fill="none" xmlns="http://www.w3.org/2000/svg">
<path d="M4.44262 18.8954L4.49678 18.5314L4.55312 18.5444C4.93811 16.744 5.82502 15.0894 7.11121 13.772C8.3974 12.4546 10.0303 11.5284 11.821 11.1004C13.6117 10.6724 15.4869 10.7601 17.2298 11.3535C18.9727 11.9469 20.512 13.0216 21.6695 14.4533C22.8271 15.885 23.5556 17.6152 23.7707 19.4438C23.9859 21.2723 23.679 23.1243 22.8854 24.7857C22.0919 26.447 20.8441 27.8497 19.2866 28.8314C17.7291 29.8132 15.9254 30.3339 14.0843 30.3333C13.6011 30.3333 13.1375 30.2596 12.6759 30.1924C12.8255 30.6951 12.9793 31.2064 13.2263 31.6658C13.4733 32.3331 13.8589 32.9116 14.2424 33.4944C14.5631 34.1249 15.1286 34.5517 15.5446 35.0912C15.9801 35.6156 16.5738 35.9644 17.0439 36.3999C17.5054 36.8549 18.1099 37.0824 18.5909 37.4031C19.0936 37.6913 19.5313 38.0098 19.9993 38.1614L21.1671 38.6424L22.1941 39.0692L21.1454 43.2704L19.8519 42.9584C19.4381 42.8544 18.9333 42.7331 18.3591 42.5879C17.7719 42.4796 17.1458 42.1827 16.4481 41.9119C15.7613 41.6021 14.9618 41.3963 14.2208 40.9001C13.4754 40.4278 12.6153 40.0334 11.8569 39.4007C11.1224 38.7486 10.2363 38.1831 9.58195 37.3554C8.86695 36.5797 8.16062 35.7651 7.61245 34.8378C6.97762 33.9538 6.54645 32.9831 6.09145 32.0233C5.67978 31.0634 5.34828 30.0819 5.07745 29.1286C4.56395 27.2176 4.33428 25.4019 4.24545 23.8484C4.17178 22.2928 4.21511 20.9993 4.30611 20.0633C4.33656 19.6724 4.3821 19.2828 4.44262 18.8954ZM28.2759 18.8954L28.3301 18.5314L28.3864 18.5444C28.7714 16.744 29.6584 15.0894 30.9445 13.772C32.2307 12.4546 33.8636 11.5284 35.6543 11.1004C37.445 10.6724 39.3203 10.7601 41.0632 11.3535C42.8061 11.9469 44.3453 13.0216 45.5029 14.4533C46.6604 15.885 47.3889 17.6152 47.6041 19.4438C47.8193 21.2723 47.5123 23.1243 46.7188 24.7857C45.9252 26.447 44.6775 27.8497 43.1199 28.8314C41.5624 29.8132 39.7587 30.3339 37.9176 30.3333C37.4344 30.3333 36.9708 30.2596 36.5093 30.1924C36.6588 30.6951 36.8126 31.2064 37.0596 31.6658C37.3066 32.3331 37.6923 32.9116 38.0758 33.4944C38.3964 34.1249 38.9619 34.5517 39.3779 35.0912C39.8134 35.6156 40.4071 35.9644 40.8773 36.3999C41.3388 36.8549 41.9433 37.0824 42.4243 37.4031C42.9269 37.6913 43.3646 38.0098 43.8326 38.1614L45.0004 38.6424C45.6526 38.9089 46.0253 39.0649 46.0253 39.0649L44.9766 43.2661L43.6831 42.9541C43.2693 42.8501 42.7644 42.7287 42.1903 42.5836C41.6031 42.4752 40.9769 42.1784 40.2793 41.9076C39.5924 41.5977 38.7929 41.3919 38.0519 40.8958C37.3066 40.4234 36.4464 40.0291 35.6881 39.3964C34.9536 38.7443 34.0674 38.1788 33.4131 37.3511C32.6981 36.5754 31.9918 35.7607 31.4436 34.8334C30.8088 33.9494 30.3776 32.9788 29.9226 32.0189C29.5109 31.0591 29.1794 30.0776 28.9086 29.1243C28.3951 27.2133 28.1654 25.3976 28.0766 23.8441C28.0029 22.2884 28.0463 20.9949 28.1373 20.0589C28.1696 19.6696 28.2159 19.2815 28.2759 18.8954Z" fill="#226797"/>
</svg>
